<?xml version="1.0" encoding="UTF-8"?>
<!DOCTYPE svg PUBLIC "-//W3C//DTD SVG 1.1//EN" "http://www.w3.org/Graphics/SVG/1.1/DTD/svg11.dtd">
<svg xmlns="http://www.w3.org/2000/svg" version="1.1" width="1000px" height="1000px" style="shape-rendering:geometricPrecision; text-rendering:geometricPrecision; image-rendering:optimizeQuality; fill-rule:evenodd; clip-rule:evenodd" xmlns:xlink="http://www.w3.org/1999/xlink">
<g><path style="opacity:1" fill="#fd0000" d="M 125.5,-0.5 C 166.5,-0.5 207.5,-0.5 248.5,-0.5C 248.212,20.5267 248.546,41.5267 249.5,62.5C 290.168,62.3333 330.835,62.5 371.5,63C 373.316,82.9361 374.149,103.103 374,123.5C 374.5,124 375,124.5 375.5,125C 395.5,125.333 415.5,125.667 435.5,126C 436.497,167.094 436.83,208.261 436.5,249.5C 478.5,250.833 520.5,250.833 562.5,249.5C 562.333,208.499 562.5,167.499 563,126.5C 583.094,125.673 603.26,125.173 623.5,125C 624,124.5 624.5,124 625,123.5C 625.173,103.26 625.673,83.0936 626.5,63C 667.499,62.5 708.499,62.3333 749.5,62.5C 750.659,41.5123 750.659,20.5123 749.5,-0.5C 790.833,-0.5 832.167,-0.5 873.5,-0.5C 873.333,20.1694 873.5,40.836 874,61.5C 894.427,62.3272 914.927,62.8272 935.5,63C 936.161,83.4351 936.828,103.935 937.5,124.5C 958.121,125.488 978.787,125.822 999.5,125.5C 999.5,291.5 999.5,457.5 999.5,623.5C 958.165,623.333 916.832,623.5 875.5,624C 875,624.5 874.5,625 874,625.5C 873.5,666.499 873.333,707.499 873.5,748.5C 831.493,748.668 790.327,748.668 750,748.5C 748.517,790.106 748.017,831.773 748.5,873.5C 707.499,873.333 666.499,873.5 625.5,874C 625,874.5 624.5,875 624,875.5C 623.5,916.832 623.333,958.165 623.5,999.5C 540.833,999.5 458.167,999.5 375.5,999.5C 375.667,958.165 375.5,916.832 375,875.5C 374.5,875 374,874.5 373.5,874C 332.501,873.5 291.501,873.333 250.5,873.5C 249.918,832.169 249.252,790.836 248.5,749.5C 207.543,748.506 166.543,748.172 125.5,748.5C 125.667,707.499 125.5,666.499 125,625.5C 124.5,625 124,624.5 123.5,624C 82.168,623.5 40.8347,623.333 -0.5,623.5C -0.5,457.5 -0.5,291.5 -0.5,125.5C 20.1694,125.667 40.836,125.5 61.5,125C 62.3272,104.573 62.8272,84.073 63,63.5C 83.6667,62.8333 104.333,62.1667 125,61.5C 125.5,40.836 125.667,20.1694 125.5,-0.5 Z"/></g>
</svg>
