<?xml version="1.0" encoding="UTF-8"?>
<!DOCTYPE svg PUBLIC "-//W3C//DTD SVG 1.1//EN" "http://www.w3.org/Graphics/SVG/1.1/DTD/svg11.dtd">
<svg xmlns="http://www.w3.org/2000/svg" version="1.1" width="1000px" height="1000px" style="shape-rendering:geometricPrecision; text-rendering:geometricPrecision; image-rendering:optimizeQuality; fill-rule:evenodd; clip-rule:evenodd" xmlns:xlink="http://www.w3.org/1999/xlink">
<g><path style="opacity:0.997" fill="#fd0000" d="M 204.5,105.5 C 237.167,105.5 269.833,105.5 302.5,105.5C 302.21,122.201 302.543,138.868 303.5,155.5C 335.502,155.333 367.502,155.5 399.5,156C 400.167,172 400.833,188 401.5,204C 417.741,204.175 433.907,204.675 450,205.5C 450.167,237.838 450.667,270.172 451.5,302.5C 467.457,303.159 483.457,303.493 499.5,303.5C 515.543,303.493 531.543,303.159 547.5,302.5C 548.333,270.172 548.833,237.838 549,205.5C 565.093,204.675 581.259,204.175 597.5,204C 598.167,188 598.833,172 599.5,156C 631.498,155.5 663.498,155.333 695.5,155.5C 696.626,138.85 696.626,122.183 695.5,105.5C 728.5,105.5 761.5,105.5 794.5,105.5C 794.333,121.837 794.5,138.17 795,154.5C 811.089,155.491 827.256,155.825 843.5,155.5C 843.5,171.833 843.5,188.167 843.5,204.5C 860.167,204.5 876.833,204.5 893.5,204.5C 893.5,335.5 893.5,466.5 893.5,597.5C 860.827,597.167 828.16,597.5 795.5,598.5C 794.507,630.79 794.174,663.123 794.5,695.5C 765.628,696.679 736.962,696.679 708.5,695.5C 704.418,695.702 700.418,696.369 696.5,697.5C 695.507,729.79 695.174,762.123 695.5,794.5C 663.123,794.174 630.79,794.507 598.5,795.5C 597.5,828.16 597.167,860.827 597.5,893.5C 532.167,893.5 466.833,893.5 401.5,893.5C 401.667,860.832 401.5,828.165 401,795.5C 368.573,794.504 336.073,794.171 303.5,794.5C 302.918,761.837 302.251,729.17 301.5,696.5C 269.21,695.507 236.877,695.174 204.5,695.5C 204.829,662.927 204.496,630.427 203.5,598C 170.835,597.5 138.168,597.333 105.5,597.5C 105.5,466.5 105.5,335.5 105.5,204.5C 122.167,204.5 138.833,204.5 155.5,204.5C 155.333,188.497 155.5,172.497 156,156.5C 172.089,155.509 188.256,155.175 204.5,155.5C 204.5,138.833 204.5,122.167 204.5,105.5 Z"/></g>
</svg>
